<?xml version="1.0" standalone="no"?>
<!DOCTYPE svg PUBLIC "-//W3C//DTD SVG 20010904//EN"
 "http://www.w3.org/TR/2001/REC-SVG-20010904/DTD/svg10.dtd">
<svg version="1.0" xmlns="http://www.w3.org/2000/svg"
 width="300.000000pt" height="300.000000pt" viewBox="0 0 300.000000 300.000000"
 preserveAspectRatio="xMidYMid meet">
<metadata>
Created by potrace 1.11, written by Peter Selinger 2001-2013
</metadata>
<g transform="translate(0.000000,300.000000) scale(0.100000,-0.100000)"
fill="#000000" stroke="none">
<path d="M1397 2363 c-1 -1 -40 -4 -87 -8 -46 -3 -107 -11 -135 -16 -27 -6
-63 -13 -80 -16 -33 -5 -152 -44 -200 -64 -16 -7 -32 -13 -35 -13 -16 -4 -130
-72 -130 -78 0 -5 -4 -8 -10 -8 -24 0 -147 -122 -193 -194 -69 -105 -107 -242
-101 -361 4 -96 10 -117 53 -220 45 -105 59 -152 54 -180 -2 -11 -4 -51 -6
-90 -2 -61 2 -76 26 -118 49 -84 126 -127 243 -136 9 0 46 -30 83 -66 l68 -65
72 -6 c56 -5 71 -3 72 7 1 8 2 26 3 41 1 15 5 30 8 34 13 13 27 -8 24 -36 -5
-43 5 -50 73 -53 66 -3 75 2 77 43 3 39 3 40 18 40 10 0 16 -14 18 -43 l3 -42
73 -3 72 -3 0 40 c0 22 5 43 11 46 15 10 18 4 21 -41 l4 -39 69 -1 c39 0 73 4
77 10 4 6 8 25 8 43 0 17 4 34 9 37 11 7 21 -18 21 -55 0 -31 1 -31 73 -31 69
0 77 5 77 52 0 28 4 40 14 40 10 0 16 -14 18 -42 l3 -43 50 -1 c78 -1 111 12
162 67 54 58 67 66 114 74 74 12 95 19 131 41 80 51 125 146 112 238 -11 82
-7 111 32 203 60 143 74 204 70 304 -5 101 -18 152 -70 259 -11 25 -24 47 -28
48 -5 2 -8 10 -8 17 0 17 -168 185 -186 185 -8 0 -14 4 -14 8 0 14 -151 89
-235 117 -120 39 -136 44 -189 50 -27 3 -51 7 -55 9 -14 9 -347 27 -354 19z
m-258 -378 c138 -54 238 -166 276 -310 54 -208 -48 -428 -241 -521 -40 -19
-90 -37 -111 -39 -46 -6 -152 -6 -173 -2 -98 23 -177 66 -238 131 -98 104
-132 195 -128 342 3 81 7 99 40 168 61 126 183 226 312 254 69 15 194 5 263
-23z m1001 5 c208 -76 332 -290 293 -505 -68 -377 -537 -509 -788 -222 -225
258 -99 656 235 741 72 18 190 12 260 -14z m-551 -858 c77 -72 83 -80 72 -100
-6 -12 -15 -22 -19 -23 -4 0 -76 -2 -161 -2 -129 -2 -157 1 -172 14 -11 9 -19
20 -19 25 0 5 37 44 83 86 57 55 89 78 107 78 17 0 51 -25 109 -78z"/>
</g>
</svg>
