<?xml version="1.0" standalone="no"?>
<!DOCTYPE svg PUBLIC "-//W3C//DTD SVG 20010904//EN"
 "http://www.w3.org/TR/2001/REC-SVG-20010904/DTD/svg10.dtd">
<svg version="1.0" xmlns="http://www.w3.org/2000/svg"
 width="300.000000pt" height="300.000000pt" viewBox="0 0 300.000000 300.000000"
 preserveAspectRatio="xMidYMid meet">
<metadata>
Created by potrace 1.11, written by Peter Selinger 2001-2013
</metadata>
<g transform="translate(0.000000,300.000000) scale(0.100000,-0.100000)"
fill="#000000" stroke="none">
<path d="M0 1500 l0 -1500 1500 0 1500 0 0 1500 0 1500 -1500 0 -1500 0 0
-1500z m1646 849 c402 -38 681 -187 809 -431 51 -97 65 -150 72 -268 5 -95 3
-112 -20 -181 -14 -41 -38 -102 -54 -135 -26 -55 -28 -66 -25 -166 3 -121 -6
-152 -58 -212 -41 -46 -95 -74 -157 -83 -65 -8 -95 -25 -139 -78 -43 -51 -75
-65 -150 -65 l-54 0 0 34 c0 69 -45 66 -52 -4 l-3 -35 -65 0 -65 0 -3 43 c-3
34 -7 43 -20 40 -12 -2 -18 -15 -20 -46 l-3 -42 -69 0 -69 0 -3 37 c-2 27 -8
39 -20 41 -15 3 -18 -4 -18 -38 l0 -41 -72 3 -73 3 -3 43 c-3 34 -7 43 -20 40
-12 -2 -18 -15 -20 -46 l-3 -43 -67 3 -67 3 -5 45 c-7 61 -34 63 -38 3 l-3
-43 -54 0 c-72 0 -96 11 -146 65 -51 55 -78 70 -142 78 -81 11 -141 52 -193
132 -16 25 -19 49 -19 150 0 117 -1 122 -37 201 -52 117 -68 177 -68 264 0
258 154 483 415 609 217 105 509 149 801 120z"/>
<path d="M870 2013 c-65 -13 -167 -73 -223 -132 -246 -258 -134 -662 212 -765
252 -74 524 106 572 378 33 192 -83 403 -268 488 -59 27 -81 31 -168 34 -55 1
-111 0 -125 -3z"/>
<path d="M1850 2002 c-82 -27 -143 -67 -201 -130 -237 -259 -114 -668 228
-757 311 -81 617 199 564 516 -25 151 -118 277 -257 346 -69 33 -83 37 -177
40 -79 2 -114 -1 -157 -15z"/>
<path d="M1376 1144 c-90 -79 -107 -112 -67 -134 29 -15 334 -13 349 2 28 28
13 56 -74 132 -48 42 -95 76 -104 76 -9 0 -56 -34 -104 -76z"/>
</g>
</svg>
